<svg width="909" height="175" viewBox="0 0 909 175" fill="none" xmlns="http://www.w3.org/2000/svg">
<rect x="434" y="14" width="475" height="160" fill="#8D1F20"/>
<path d="M233.078 69.3125H212.352V104.805C212.352 106.773 211.859 108.305 210.875 109.398C209.927 110.492 208.596 111.039 206.883 111.039C205.023 111.039 203.018 110.255 200.867 108.688C198.716 107.083 196.966 105.151 195.617 102.891C194.268 100.594 193.594 98.4792 193.594 96.5469C193.594 94.6146 194.141 93.1745 195.234 92.2266C196.365 91.2786 198.078 90.8047 200.375 90.8047H203.383V69.3125H189V61.3281H253.695V69.3125H242.047V131H233.078V69.3125ZM282.734 69.3125H271.086V131H262.062V69.3125H252.109V61.3281H282.734V69.3125ZM261.078 62.1484C259.438 59.8151 257.961 57.9922 256.648 56.6797C255.336 55.3672 254.096 54.4193 252.93 53.8359C251.799 53.2161 250.688 52.7969 249.594 52.5781C248.464 52.3594 247.005 52.25 245.219 52.25C242.557 52.25 239.513 53.0521 236.086 54.6562L233.133 46.8906C234.846 46.1979 236.633 45.6146 238.492 45.1406C240.352 44.6667 242.393 44.4297 244.617 44.4297C246.112 44.4297 247.516 44.5938 248.828 44.9219C250.141 45.2135 251.398 45.6875 252.602 46.3438C253.805 47 254.88 47.7292 255.828 48.5312C256.812 49.3333 257.615 50.0807 258.234 50.7734C258.854 51.4297 259.492 52.3229 260.148 53.4531L260.641 53.2891C259.073 49.3151 257.578 46.2891 256.156 44.2109C254.734 42.0964 253.221 40.6016 251.617 39.7266C250.013 38.8151 248.026 38.3594 245.656 38.3594C244.38 38.3594 243.159 38.4688 241.992 38.6875C240.826 38.8698 239.458 39.2708 237.891 39.8906L235.266 32.1797C237.052 31.5964 238.711 31.1953 240.242 30.9766C241.737 30.7214 243.469 30.5938 245.438 30.5938C248.609 30.5938 251.362 31.1406 253.695 32.2344C256.065 33.2917 258.198 34.987 260.094 37.3203C262.026 39.6536 263.831 42.8255 265.508 46.8359C267.221 50.8099 268.917 55.9141 270.594 62.1484H261.078ZM328.562 69.3125H316.914C318.154 72.1927 318.773 75.6745 318.773 79.7578C318.773 82.8203 318.281 85.5182 317.297 87.8516C316.349 90.1849 315.018 92.263 313.305 94.0859C311.628 95.8724 309.622 97.4583 307.289 98.8438C304.992 100.229 302.495 101.469 299.797 102.562C302.823 106.172 306.542 110.055 310.953 114.211C315.401 118.331 320.177 122.378 325.281 126.352L319.266 132.367C316.167 129.815 313.031 127.081 309.859 124.164C306.688 121.247 303.461 118.094 300.18 114.703C296.935 111.312 294.237 108.305 292.086 105.68C289.971 103.055 288.477 101.013 287.602 99.5547C286.763 98.0964 286.198 96.8932 285.906 95.9453C285.651 94.9974 285.523 93.9948 285.523 92.9375C285.523 91.9531 285.76 91.0234 286.234 90.1484C286.745 89.237 287.529 88.4896 288.586 87.9062C289.68 87.3229 291.047 87.0312 292.688 87.0312C294.583 87.0312 296.224 87.4688 297.609 88.3438C299.031 89.1823 300.307 90.3672 301.438 91.8984C304.318 90.4036 306.414 88.5625 307.727 86.375C309.076 84.151 309.75 81.5443 309.75 78.5547C309.75 77.0964 309.586 75.5104 309.258 73.7969C308.93 72.0469 308.474 70.5521 307.891 69.3125H281.094V61.3281H328.562V69.3125ZM312.375 38.0312C313.469 38.0312 314.49 38.3229 315.438 38.9062C316.349 39.4531 317.096 40.237 317.68 41.2578C318.263 42.2786 318.555 43.3724 318.555 44.5391C318.555 45.7422 318.263 46.8542 317.68 47.875C317.06 48.8958 316.294 49.6797 315.383 50.2266C314.435 50.7734 313.432 51.0469 312.375 51.0469C311.281 51.0469 310.279 50.7734 309.367 50.2266C308.419 49.6432 307.654 48.8594 307.07 47.875C306.487 46.8542 306.195 45.7422 306.195 44.5391C306.195 43.3724 306.487 42.2786 307.07 41.2578C307.617 40.237 308.365 39.4531 309.312 38.9062C310.26 38.3229 311.281 38.0312 312.375 38.0312ZM371 69.3125H350.273V104.805C350.273 106.773 349.781 108.305 348.797 109.398C347.849 110.492 346.518 111.039 344.805 111.039C342.945 111.039 340.94 110.255 338.789 108.688C336.638 107.083 334.888 105.151 333.539 102.891C332.19 100.594 331.516 98.4792 331.516 96.5469C331.516 94.6146 332.062 93.1745 333.156 92.2266C334.286 91.2786 336 90.8047 338.297 90.8047H341.305V69.3125H326.922V61.3281H391.617V69.3125H379.969V131H371V69.3125ZM369.469 62.1484C368.156 59.5599 367.172 57.0625 366.516 54.6562C365.859 52.25 365.531 49.7891 365.531 47.2734C365.531 44.0651 366.224 41.2031 367.609 38.6875C368.995 36.1354 371.036 34.1484 373.734 32.7266C376.396 31.3047 379.568 30.5938 383.25 30.5938C387.552 30.5938 391.161 31.6146 394.078 33.6562C397.031 35.6615 399.583 38.7969 401.734 43.0625C403.922 47.2917 406.109 53.3802 408.297 61.3281H420.656V69.3125H409.008V131H399.984V69.3125H390.031V61.3281H399.82C398.289 55.5677 396.794 51.1198 395.336 47.9844C393.914 44.8125 392.273 42.4609 390.414 40.9297C388.591 39.362 386.349 38.5781 383.688 38.5781C380.771 38.5781 378.51 39.4896 376.906 41.3125C375.302 43.099 374.5 45.6328 374.5 48.9141C374.5 50.9557 374.792 52.9974 375.375 55.0391C375.922 57.0807 376.87 59.4505 378.219 62.1484H369.469Z" fill="#8D1F20"/>
<path d="M519.203 69.3125H507.555V131H498.586V109.617C495.706 111.44 492.99 112.734 490.438 113.5C487.885 114.229 485.206 114.594 482.398 114.594C479.299 114.594 476.474 114.065 473.922 113.008C471.37 111.951 469.219 110.419 467.469 108.414C465.755 106.372 464.534 104.021 463.805 101.359C463.112 98.6615 462.766 95.1615 462.766 90.8594V69.3125H453.906V61.3281H519.203V69.3125ZM471.734 69.3125V89.7109C471.734 93.2839 471.862 95.9453 472.117 97.6953C472.372 99.4453 472.773 100.831 473.32 101.852C473.904 102.836 474.615 103.711 475.453 104.477C476.292 105.206 477.349 105.753 478.625 106.117C479.901 106.482 481.432 106.664 483.219 106.664C485.88 106.664 488.542 106.026 491.203 104.75C493.901 103.474 496.362 101.688 498.586 99.3906V69.3125H471.734ZM548.188 69.3125H536.539V131H527.516V69.3125H517.562V61.3281H526.805C525.747 59.2865 524.927 57.2448 524.344 55.2031C523.797 53.1615 523.523 50.974 523.523 48.6406C523.523 45.9792 523.997 43.5365 524.945 41.3125C525.893 39.0885 527.26 37.1927 529.047 35.625C530.833 34.0208 533.003 32.7812 535.555 31.9062C538.107 31.0312 540.987 30.5938 544.195 30.5938C548.497 30.5938 552.435 31.2682 556.008 32.6172C559.581 33.9297 562.88 35.9167 565.906 38.5781C568.932 41.2396 571.721 44.5391 574.273 48.4766C576.826 52.4141 579.232 56.9714 581.492 62.1484H572.523C568.586 54.1641 564.43 48.2578 560.055 44.4297C555.716 40.5651 550.849 38.6328 545.453 38.6328C541.333 38.6328 538.143 39.6536 535.883 41.6953C533.622 43.7005 532.492 46.4714 532.492 50.0078C532.492 52.3047 532.82 54.3646 533.477 56.1875C534.169 57.974 534.953 59.6875 535.828 61.3281H548.188V69.3125ZM594.016 69.3125H582.367C583.607 72.1927 584.227 75.6745 584.227 79.7578C584.227 82.8203 583.734 85.5182 582.75 87.8516C581.802 90.1849 580.471 92.263 578.758 94.0859C577.081 95.8724 575.076 97.4583 572.742 98.8438C570.445 100.229 567.948 101.469 565.25 102.562C568.276 106.172 571.995 110.055 576.406 114.211C580.854 118.331 585.63 122.378 590.734 126.352L584.719 132.367C581.62 129.815 578.484 127.081 575.312 124.164C572.141 121.247 568.914 118.094 565.633 114.703C562.388 111.312 559.69 108.305 557.539 105.68C555.424 103.055 553.93 101.013 553.055 99.5547C552.216 98.0964 551.651 96.8932 551.359 95.9453C551.104 94.9974 550.977 93.9948 550.977 92.9375C550.977 91.9531 551.214 91.0234 551.688 90.1484C552.198 89.237 552.982 88.4896 554.039 87.9062C555.133 87.3229 556.5 87.0312 558.141 87.0312C560.036 87.0312 561.677 87.4688 563.062 88.3438C564.484 89.1823 565.76 90.3672 566.891 91.8984C569.771 90.4036 571.867 88.5625 573.18 86.375C574.529 84.151 575.203 81.5443 575.203 78.5547C575.203 77.0964 575.039 75.5104 574.711 73.7969C574.383 72.0469 573.927 70.5521 573.344 69.3125H546.547V61.3281H594.016V69.3125ZM674.953 69.3125H663.305V131H654.281V69.3125H639.461V95.0156C639.461 97.8958 639.206 100.357 638.695 102.398C638.185 104.404 637.383 106.19 636.289 107.758C635.232 109.326 633.919 110.62 632.352 111.641C630.82 112.625 629.07 113.372 627.102 113.883C625.133 114.357 622.927 114.594 620.484 114.594C616.182 114.594 612.609 113.792 609.766 112.188C606.922 110.583 604.789 108.159 603.367 104.914C601.945 101.669 601.234 97.2396 601.234 91.625V69.3125H592.375V61.3281H674.953V69.3125ZM630.492 69.3125H610.203V91.5156C610.203 94.1771 610.331 96.3281 610.586 97.9688C610.878 99.5729 611.279 100.94 611.789 102.07C612.336 103.164 612.992 104.057 613.758 104.75C614.56 105.406 615.49 105.898 616.547 106.227C617.604 106.518 618.826 106.664 620.211 106.664C622.544 106.664 624.367 106.318 625.68 105.625C627.029 104.896 628.049 103.893 628.742 102.617C629.471 101.305 629.945 99.8281 630.164 98.1875C630.383 96.5469 630.492 94.3229 630.492 91.5156V69.3125ZM719.305 110.875C716.753 112.589 713.964 113.919 710.938 114.867C707.948 115.779 704.849 116.234 701.641 116.234C695.188 116.234 689.828 114.065 685.562 109.727C681.333 105.388 678.672 99.3177 677.578 91.5156C682.391 90.4948 685.854 89.0729 687.969 87.25C690.12 85.4271 691.195 82.9479 691.195 79.8125C691.195 76.4219 689.828 72.9219 687.094 69.3125H673.312V61.3281H739.922V69.3125H728.273V131H719.305V110.875ZM687.75 97.2578C689.245 101.013 691.141 103.802 693.438 105.625C695.771 107.411 698.724 108.305 702.297 108.305C705.432 108.305 708.422 107.648 711.266 106.336C714.146 104.987 716.826 102.945 719.305 100.211V69.3125H696.992C698.013 71.2083 698.797 73.1771 699.344 75.2188C699.927 77.224 700.219 79.1927 700.219 81.125C700.219 85.0625 699.161 88.4167 697.047 91.1875C694.969 93.9219 691.87 95.9453 687.75 97.2578ZM815.117 69.3125H803.469V131H794.445V101.961H780.938C772.88 101.961 766.773 101.159 762.617 99.5547C760.977 100.758 759.117 101.797 757.039 102.672C760.102 106.609 763.693 110.62 767.812 114.703C771.932 118.786 776.271 122.669 780.828 126.352L774.812 132.367C770.656 128.758 766.555 124.911 762.508 120.828C758.461 116.708 754.888 112.807 751.789 109.125C748.69 105.443 746.411 102.398 744.953 99.9922C744.078 98.4974 743.477 97.2396 743.148 96.2188C742.857 95.1979 742.711 94.1042 742.711 92.9375C742.711 91.9531 742.948 91.0234 743.422 90.1484C743.932 89.237 744.716 88.4896 745.773 87.9062C746.867 87.3229 748.234 87.0312 749.875 87.0312C751.734 87.0312 753.357 87.4688 754.742 88.3438C756.164 89.1823 757.44 90.3672 758.57 91.8984C759.883 90.7318 760.885 89.1094 761.578 87.0312C762.271 84.9531 762.617 82.5104 762.617 79.7031C762.617 77.4792 762.435 75.474 762.07 73.6875C761.706 71.8646 761.268 70.4062 760.758 69.3125H738.281V61.3281H815.117V69.3125ZM767.703 93.5938C769.745 93.849 772.917 93.9766 777.219 93.9766H794.445V69.3125H769.781C771.021 72.1927 771.641 75.6745 771.641 79.7578C771.641 85.6276 770.328 90.2396 767.703 93.5938ZM806.531 158.398C802.411 160.112 798.292 160.969 794.172 160.969C790.49 160.969 787.299 160.312 784.602 159C781.904 157.688 779.844 155.828 778.422 153.422C777 151.016 776.289 148.263 776.289 145.164C776.289 142.357 777.073 139.768 778.641 137.398C780.172 135.065 782.396 133.206 785.312 131.82C788.229 130.471 791.602 129.797 795.43 129.797C798.966 129.797 802.266 130.253 805.328 131.164C808.391 132.076 811.198 133.352 813.75 134.992C816.339 136.633 818.891 138.747 821.406 141.336C823.922 143.961 826.693 147.57 829.719 152.164L822.883 156.539C819.966 152.164 817.177 148.609 814.516 145.875C811.854 143.141 809.01 141.044 805.984 139.586C802.922 138.128 799.604 137.398 796.031 137.398C792.349 137.398 789.523 138.109 787.555 139.531C785.549 140.953 784.547 142.904 784.547 145.383C784.547 146.805 784.802 147.99 785.312 148.938C785.823 149.922 786.497 150.706 787.336 151.289C788.174 151.909 789.141 152.346 790.234 152.602C791.328 152.857 792.44 152.984 793.57 152.984C795.247 152.984 796.852 152.82 798.383 152.492C799.914 152.164 801.682 151.526 803.688 150.578L806.531 158.398ZM816.539 84.3516C819.711 82.8203 822.664 81.7083 825.398 81.0156C828.133 80.3229 830.867 79.9766 833.602 79.9766C836.555 79.9766 839.198 80.4505 841.531 81.3984C843.865 82.3099 846.18 83.7865 848.477 85.8281C850.773 87.8333 853.38 90.7135 856.297 94.4688V69.3125H813.531V61.3281H876.969V69.3125H865.32V131H856.297V104.805L827.805 123.727L822.445 116.18L850.008 99.5C847.565 96.401 845.56 94.1406 843.992 92.7188C842.461 91.2604 840.893 90.1849 839.289 89.4922C837.685 88.763 835.862 88.3984 833.82 88.3984C831.56 88.3984 829.336 88.7448 827.148 89.4375C824.997 90.0938 822.5 91.1328 819.656 92.5547L816.539 84.3516Z" fill="white"/>
<circle cx="52.1344" cy="103.866" r="46.6344" stroke="#8D1F20" stroke-width="11"/>
<path d="M167 123C167 151.719 143.719 175 115 175C86.2812 175 63 151.719 63 123C63 94.2812 86.2812 71 115 71C143.719 71 167 94.2812 167 123ZM75.48 123C75.48 144.826 93.1737 162.52 115 162.52C136.826 162.52 154.52 144.826 154.52 123C154.52 101.174 136.826 83.48 115 83.48C93.1737 83.48 75.48 101.174 75.48 123Z" fill="#8D1F20"/>
<path d="M22.1849 37.8655L46.0336 55.0588H56.0168L78.7563 37.8655L66.5546 24H50.4706H34.3866L22.1849 37.8655Z" stroke="#8D1F20" stroke-width="11"/>
</svg>
