<svg width="965" height="175" viewBox="0 0 965 175" fill="none" xmlns="http://www.w3.org/2000/svg">
<rect x="464" y="14" width="501" height="160" fill="#8D1F20"/>
<path d="M233.078 69.3125H212.352V104.805C212.352 106.773 211.859 108.305 210.875 109.398C209.927 110.492 208.596 111.039 206.883 111.039C205.023 111.039 203.018 110.255 200.867 108.688C198.716 107.083 196.966 105.151 195.617 102.891C194.268 100.594 193.594 98.4792 193.594 96.5469C193.594 94.6146 194.141 93.1745 195.234 92.2266C196.365 91.2786 198.078 90.8047 200.375 90.8047H203.383V69.3125H189V61.3281H253.695V69.3125H242.047V131H233.078V69.3125ZM282.734 69.3125H271.086V131H262.062V69.3125H252.109V61.3281H282.734V69.3125ZM261.078 62.1484C259.438 59.8151 257.961 57.9922 256.648 56.6797C255.336 55.3672 254.096 54.4193 252.93 53.8359C251.799 53.2161 250.688 52.7969 249.594 52.5781C248.464 52.3594 247.005 52.25 245.219 52.25C242.557 52.25 239.513 53.0521 236.086 54.6562L233.133 46.8906C234.846 46.1979 236.633 45.6146 238.492 45.1406C240.352 44.6667 242.393 44.4297 244.617 44.4297C246.112 44.4297 247.516 44.5938 248.828 44.9219C250.141 45.2135 251.398 45.6875 252.602 46.3438C253.805 47 254.88 47.7292 255.828 48.5312C256.812 49.3333 257.615 50.0807 258.234 50.7734C258.854 51.4297 259.492 52.3229 260.148 53.4531L260.641 53.2891C259.073 49.3151 257.578 46.2891 256.156 44.2109C254.734 42.0964 253.221 40.6016 251.617 39.7266C250.013 38.8151 248.026 38.3594 245.656 38.3594C244.38 38.3594 243.159 38.4688 241.992 38.6875C240.826 38.8698 239.458 39.2708 237.891 39.8906L235.266 32.1797C237.052 31.5964 238.711 31.1953 240.242 30.9766C241.737 30.7214 243.469 30.5938 245.438 30.5938C248.609 30.5938 251.362 31.1406 253.695 32.2344C256.065 33.2917 258.198 34.987 260.094 37.3203C262.026 39.6536 263.831 42.8255 265.508 46.8359C267.221 50.8099 268.917 55.9141 270.594 62.1484H261.078ZM328.562 69.3125H316.914C318.154 72.1927 318.773 75.6745 318.773 79.7578C318.773 82.8203 318.281 85.5182 317.297 87.8516C316.349 90.1849 315.018 92.263 313.305 94.0859C311.628 95.8724 309.622 97.4583 307.289 98.8438C304.992 100.229 302.495 101.469 299.797 102.562C302.823 106.172 306.542 110.055 310.953 114.211C315.401 118.331 320.177 122.378 325.281 126.352L319.266 132.367C316.167 129.815 313.031 127.081 309.859 124.164C306.688 121.247 303.461 118.094 300.18 114.703C296.935 111.312 294.237 108.305 292.086 105.68C289.971 103.055 288.477 101.013 287.602 99.5547C286.763 98.0964 286.198 96.8932 285.906 95.9453C285.651 94.9974 285.523 93.9948 285.523 92.9375C285.523 91.9531 285.76 91.0234 286.234 90.1484C286.745 89.237 287.529 88.4896 288.586 87.9062C289.68 87.3229 291.047 87.0312 292.688 87.0312C294.583 87.0312 296.224 87.4688 297.609 88.3438C299.031 89.1823 300.307 90.3672 301.438 91.8984C304.318 90.4036 306.414 88.5625 307.727 86.375C309.076 84.151 309.75 81.5443 309.75 78.5547C309.75 77.0964 309.586 75.5104 309.258 73.7969C308.93 72.0469 308.474 70.5521 307.891 69.3125H281.094V61.3281H328.562V69.3125ZM357.547 69.3125H345.898V131H336.875V69.3125H326.922V61.3281H357.547V69.3125ZM341.359 38.0312C342.453 38.0312 343.474 38.3229 344.422 38.9062C345.333 39.4531 346.081 40.237 346.664 41.2578C347.247 42.2786 347.539 43.3724 347.539 44.5391C347.539 45.7422 347.247 46.8542 346.664 47.875C346.044 48.8958 345.279 49.6797 344.367 50.2266C343.419 50.7734 342.417 51.0469 341.359 51.0469C340.266 51.0469 339.263 50.7734 338.352 50.2266C337.404 49.6432 336.638 48.8594 336.055 47.875C335.471 46.8542 335.18 45.7422 335.18 44.5391C335.18 43.3724 335.471 42.2786 336.055 41.2578C336.602 40.237 337.349 39.4531 338.297 38.9062C339.245 38.3229 340.266 38.0312 341.359 38.0312ZM399.984 69.3125H379.258V104.805C379.258 106.773 378.766 108.305 377.781 109.398C376.833 110.492 375.503 111.039 373.789 111.039C371.93 111.039 369.924 110.255 367.773 108.688C365.622 107.083 363.872 105.151 362.523 102.891C361.174 100.594 360.5 98.4792 360.5 96.5469C360.5 94.6146 361.047 93.1745 362.141 92.2266C363.271 91.2786 364.984 90.8047 367.281 90.8047H370.289V69.3125H355.906V61.3281H420.602V69.3125H408.953V131H399.984V69.3125ZM398.453 62.1484C397.141 59.5599 396.156 57.0625 395.5 54.6562C394.844 52.25 394.516 49.7891 394.516 47.2734C394.516 44.0651 395.208 41.2031 396.594 38.6875C397.979 36.1354 400.021 34.1484 402.719 32.7266C405.38 31.3047 408.552 30.5938 412.234 30.5938C416.536 30.5938 420.146 31.6146 423.062 33.6562C426.016 35.6615 428.568 38.7969 430.719 43.0625C432.906 47.2917 435.094 53.3802 437.281 61.3281H449.641V69.3125H437.992V131H428.969V69.3125H419.016V61.3281H428.805C427.273 55.5677 425.779 51.1198 424.32 47.9844C422.898 44.8125 421.258 42.4609 419.398 40.9297C417.576 39.362 415.333 38.5781 412.672 38.5781C409.755 38.5781 407.495 39.4896 405.891 41.3125C404.286 43.099 403.484 45.6328 403.484 48.9141C403.484 50.9557 403.776 52.9974 404.359 55.0391C404.906 57.0807 405.854 59.4505 407.203 62.1484H398.453Z" fill="#8D1F20"/>
<path d="M548.188 69.3125H536.539V131H527.57V109.617C524.69 111.44 521.974 112.734 519.422 113.5C516.87 114.229 514.19 114.594 511.383 114.594C508.284 114.594 505.458 114.065 502.906 113.008C500.354 111.951 498.203 110.419 496.453 108.414C494.74 106.372 493.518 104.021 492.789 101.359C492.096 98.6615 491.75 95.1615 491.75 90.8594V69.3125H482.891V61.3281H548.188V69.3125ZM500.719 69.3125V89.7109C500.719 93.2839 500.846 95.9453 501.102 97.6953C501.357 99.4453 501.758 100.831 502.305 101.852C502.888 102.836 503.599 103.711 504.438 104.477C505.276 105.206 506.333 105.753 507.609 106.117C508.885 106.482 510.417 106.664 512.203 106.664C514.865 106.664 517.526 106.026 520.188 104.75C522.885 103.474 525.346 101.688 527.57 99.3906V69.3125H500.719ZM577.172 69.3125H565.523V131H556.5V69.3125H546.547V61.3281H555.789C554.732 59.2865 553.911 57.2448 553.328 55.2031C552.781 53.1615 552.508 50.974 552.508 48.6406C552.508 45.9792 552.982 43.5365 553.93 41.3125C554.878 39.0885 556.245 37.1927 558.031 35.625C559.818 34.0208 561.987 32.7812 564.539 31.9062C567.091 31.0312 569.971 30.5938 573.18 30.5938C577.482 30.5938 581.419 31.2682 584.992 32.6172C588.565 33.9297 591.865 35.9167 594.891 38.5781C597.917 41.2396 600.706 44.5391 603.258 48.4766C605.81 52.4141 608.216 56.9714 610.477 62.1484H601.508C597.57 54.1641 593.414 48.2578 589.039 44.4297C584.701 40.5651 579.833 38.6328 574.438 38.6328C570.318 38.6328 567.128 39.6536 564.867 41.6953C562.607 43.7005 561.477 46.4714 561.477 50.0078C561.477 52.3047 561.805 54.3646 562.461 56.1875C563.154 57.974 563.938 59.6875 564.812 61.3281H577.172V69.3125ZM623 69.3125H611.352C612.591 72.1927 613.211 75.6745 613.211 79.7578C613.211 82.8203 612.719 85.5182 611.734 87.8516C610.786 90.1849 609.456 92.263 607.742 94.0859C606.065 95.8724 604.06 97.4583 601.727 98.8438C599.43 100.229 596.932 101.469 594.234 102.562C597.26 106.172 600.979 110.055 605.391 114.211C609.839 118.331 614.615 122.378 619.719 126.352L613.703 132.367C610.604 129.815 607.469 127.081 604.297 124.164C601.125 121.247 597.898 118.094 594.617 114.703C591.372 111.312 588.674 108.305 586.523 105.68C584.409 103.055 582.914 101.013 582.039 99.5547C581.201 98.0964 580.635 96.8932 580.344 95.9453C580.089 94.9974 579.961 93.9948 579.961 92.9375C579.961 91.9531 580.198 91.0234 580.672 90.1484C581.182 89.237 581.966 88.4896 583.023 87.9062C584.117 87.3229 585.484 87.0312 587.125 87.0312C589.021 87.0312 590.661 87.4688 592.047 88.3438C593.469 89.1823 594.745 90.3672 595.875 91.8984C598.755 90.4036 600.852 88.5625 602.164 86.375C603.513 84.151 604.188 81.5443 604.188 78.5547C604.188 77.0964 604.023 75.5104 603.695 73.7969C603.367 72.0469 602.911 70.5521 602.328 69.3125H575.531V61.3281H623V69.3125ZM703.938 69.3125H692.289V131H683.266V69.3125H668.445V95.0156C668.445 97.8958 668.19 100.357 667.68 102.398C667.169 104.404 666.367 106.19 665.273 107.758C664.216 109.326 662.904 110.62 661.336 111.641C659.805 112.625 658.055 113.372 656.086 113.883C654.117 114.357 651.911 114.594 649.469 114.594C645.167 114.594 641.594 113.792 638.75 112.188C635.906 110.583 633.773 108.159 632.352 104.914C630.93 101.669 630.219 97.2396 630.219 91.625V69.3125H621.359V61.3281H703.938V69.3125ZM659.477 69.3125H639.188V91.5156C639.188 94.1771 639.315 96.3281 639.57 97.9688C639.862 99.5729 640.263 100.94 640.773 102.07C641.32 103.164 641.977 104.057 642.742 104.75C643.544 105.406 644.474 105.898 645.531 106.227C646.589 106.518 647.81 106.664 649.195 106.664C651.529 106.664 653.352 106.318 654.664 105.625C656.013 104.896 657.034 103.893 657.727 102.617C658.456 101.305 658.93 99.8281 659.148 98.1875C659.367 96.5469 659.477 94.3229 659.477 91.5156V69.3125ZM748.289 110.875C745.737 112.589 742.948 113.919 739.922 114.867C736.932 115.779 733.833 116.234 730.625 116.234C724.172 116.234 718.812 114.065 714.547 109.727C710.318 105.388 707.656 99.3177 706.562 91.5156C711.375 90.4948 714.839 89.0729 716.953 87.25C719.104 85.4271 720.18 82.9479 720.18 79.8125C720.18 76.4219 718.812 72.9219 716.078 69.3125H702.297V61.3281H768.906V69.3125H757.258V131H748.289V110.875ZM716.734 97.2578C718.229 101.013 720.125 103.802 722.422 105.625C724.755 107.411 727.708 108.305 731.281 108.305C734.417 108.305 737.406 107.648 740.25 106.336C743.13 104.987 745.81 102.945 748.289 100.211V69.3125H725.977C726.997 71.2083 727.781 73.1771 728.328 75.2188C728.911 77.224 729.203 79.1927 729.203 81.125C729.203 85.0625 728.146 88.4167 726.031 91.1875C723.953 93.9219 720.854 95.9453 716.734 97.2578ZM878.992 69.3125H867.344V131H858.32V101.961H844.812C836.755 101.961 830.648 101.159 826.492 99.5547C824.852 100.758 822.992 101.797 820.914 102.672C823.977 106.609 827.568 110.62 831.688 114.703C835.807 118.786 840.146 122.669 844.703 126.352L838.688 132.367C834.531 128.758 830.43 124.911 826.383 120.828C822.336 116.708 818.763 112.807 815.664 109.125C812.565 105.443 810.286 102.398 808.828 99.9922C807.953 98.4974 807.352 97.2396 807.023 96.2188C806.732 95.1979 806.586 94.1042 806.586 92.9375C806.586 91.9531 806.823 91.0234 807.297 90.1484C807.807 89.237 808.591 88.4896 809.648 87.9062C810.742 87.3229 812.109 87.0312 813.75 87.0312C815.609 87.0312 817.232 87.4688 818.617 88.3438C820.039 89.1823 821.315 90.3672 822.445 91.8984C823.758 90.7318 824.76 89.1094 825.453 87.0312C826.146 84.9531 826.492 82.5104 826.492 79.7031C826.492 77.4792 826.31 75.474 825.945 73.6875C825.581 71.8646 825.143 70.4062 824.633 69.3125H802.156V61.3281H878.992V69.3125ZM831.578 93.5938C833.62 93.849 836.792 93.9766 841.094 93.9766H858.32V69.3125H833.656C834.896 72.1927 835.516 75.6745 835.516 79.7578C835.516 85.6276 834.203 90.2396 831.578 93.5938ZM870.406 158.398C866.286 160.112 862.167 160.969 858.047 160.969C854.365 160.969 851.174 160.312 848.477 159C845.779 157.688 843.719 155.828 842.297 153.422C840.875 151.016 840.164 148.263 840.164 145.164C840.164 142.357 840.948 139.768 842.516 137.398C844.047 135.065 846.271 133.206 849.188 131.82C852.104 130.471 855.477 129.797 859.305 129.797C862.841 129.797 866.141 130.253 869.203 131.164C872.266 132.076 875.073 133.352 877.625 134.992C880.214 136.633 882.766 138.747 885.281 141.336C887.797 143.961 890.568 147.57 893.594 152.164L886.758 156.539C883.841 152.164 881.052 148.609 878.391 145.875C875.729 143.141 872.885 141.044 869.859 139.586C866.797 138.128 863.479 137.398 859.906 137.398C856.224 137.398 853.398 138.109 851.43 139.531C849.424 140.953 848.422 142.904 848.422 145.383C848.422 146.805 848.677 147.99 849.188 148.938C849.698 149.922 850.372 150.706 851.211 151.289C852.049 151.909 853.016 152.346 854.109 152.602C855.203 152.857 856.315 152.984 857.445 152.984C859.122 152.984 860.727 152.82 862.258 152.492C863.789 152.164 865.557 151.526 867.562 150.578L870.406 158.398ZM880.414 84.3516C883.586 82.8203 886.539 81.7083 889.273 81.0156C892.008 80.3229 894.742 79.9766 897.477 79.9766C900.43 79.9766 903.073 80.4505 905.406 81.3984C907.74 82.3099 910.055 83.7865 912.352 85.8281C914.648 87.8333 917.255 90.7135 920.172 94.4688V69.3125H877.406V61.3281H940.844V69.3125H929.195V131H920.172V104.805L891.68 123.727L886.32 116.18L913.883 99.5C911.44 96.401 909.435 94.1406 907.867 92.7188C906.336 91.2604 904.768 90.1849 903.164 89.4922C901.56 88.763 899.737 88.3984 897.695 88.3984C895.435 88.3984 893.211 88.7448 891.023 89.4375C888.872 90.0938 886.375 91.1328 883.531 92.5547L880.414 84.3516Z" fill="white"/>
<circle cx="52.1344" cy="103.866" r="46.6344" stroke="#8D1F20" stroke-width="11"/>
<path d="M167 123C167 151.719 143.719 175 115 175C86.2812 175 63 151.719 63 123C63 94.2812 86.2812 71 115 71C143.719 71 167 94.2812 167 123ZM75.48 123C75.48 144.826 93.1737 162.52 115 162.52C136.826 162.52 154.52 144.826 154.52 123C154.52 101.174 136.826 83.48 115 83.48C93.1737 83.48 75.48 101.174 75.48 123Z" fill="#8D1F20"/>
<path d="M22.1849 37.8655L46.0337 55.0588H56.0169L78.7563 37.8655L66.5547 24H50.4706H34.3866L22.1849 37.8655Z" stroke="#8D1F20" stroke-width="11"/>
</svg>
